<svg width="37" height="23" viewBox="0 0 37 23" fill="none" xmlns="http://www.w3.org/2000/svg">
<path d="M0.0926133 2.96067C-0.0488129 2.79096 -0.0258827 2.53873 0.143829 2.39731L2.90942 0.0926433C3.07914 -0.0487823 3.33136 -0.0258529 3.47279 0.143858C3.61421 0.313569 3.59128 0.565794 3.42157 0.70722L0.963264 2.75581L3.01186 5.21412C3.15328 5.38383 3.13035 5.63606 2.96064 5.77748C2.79093 5.91891 2.5387 5.89598 2.39728 5.72627L0.0926133 2.96067ZM35.8999 21.9858L35.5592 22.1955C33.5406 18.9152 31.5842 14.8039 26.7227 11.1655C21.8642 7.52926 14.069 4.34889 0.363689 3.10295L0.399902 2.7046L0.436115 2.30624C14.2308 3.56029 22.1856 6.77055 27.2021 10.525C32.2156 14.2772 34.2592 18.5564 36.2406 21.7762L35.8999 21.9858Z" fill="#4A4A4A"/>
</svg>
